HIERARCHY
ROOT pelvis
{
  OFFSET 0 100 0
  CHANNELS 6 Xposition Yposition Zposition Zrotation Xrotation Yrotation
  JOINT pelvis_right_femur
  {
    OFFSET -10.78128 -3.44521 -0.5502486
    CHANNELS 3 Zrotation Xrotation Yrotation
    JOINT right_femur_tibia
    {
      OFFSET -0.8047443 -44.0398 -0.1307829
      CHANNELS 3 Zrotation Xrotation Yrotation
      JOINT right_tibia_foot
      {
        OFFSET 3.006224 -47.83518 -5
        CHANNELS 3 Zrotation Xrotation Yrotation
        End Site
        {
          OFFSET 0 -5 15
        }
      }
    }
  }
  JOINT pelvis_left_femur
  {
    OFFSET 10.78128 -3.44521 -0.5502486
    CHANNELS 3 Zrotation Xrotation Yrotation
    JOINT left_femur_tibia
    {
      OFFSET 0.8047443 -44.0398 -0.1307829
      CHANNELS 3 Zrotation Xrotation Yrotation
      JOINT left_tibia_foot
      {
        OFFSET -4.370144 -48.10324 -4.275266
        CHANNELS 3 Zrotation Xrotation Yrotation
        End Site
        {
          OFFSET 0 -5 15
        }
      }
    }
  }
  JOINT pelvis_spine1
  {
    OFFSET 0 6.468898 -3.129235
    CHANNELS 3 Zrotation Xrotation Yrotation
    JOINT spine1
    {
      OFFSET 0 23.15396 4.99043
      CHANNELS 3 Zrotation Xrotation Yrotation
      JOINT spine2
      {
        OFFSET 0 20.79997 -5.064912
        CHANNELS 3 Zrotation Xrotation Yrotation
        JOINT neck
        {
          OFFSET 0 14.38658 9.616178
          CHANNELS 3 Zrotation Xrotation Yrotation
          End Site
          {
            OFFSET 0 20 0
          }
        }
      }
      JOINT right_manubrium
      {
        OFFSET -5.722621 16.35077 3.967754
        CHANNELS 3 Zrotation Xrotation Yrotation
        JOINT right_clavicle
        {
          OFFSET -13.16364 1.694482 -4.693211
          CHANNELS 3 Zrotation Xrotation Yrotation
          JOINT right_humerus
          {
            OFFSET -28.5034 -0.3100689 -2.792744
            CHANNELS 3 Zrotation Xrotation Yrotation
            JOINT right_radius
            {
              OFFSET -25.15693 0.02248979 -1.271978
              CHANNELS 3 Zrotation Xrotation Yrotation
              End Site
              {
                OFFSET -15 0 0
              }
            }
          }
        }
      }
      JOINT left_manubrium
      {
        OFFSET 5.722621 16.35077 3.967754
        CHANNELS 3 Zrotation Xrotation Yrotation
        JOINT left_clavicle
        {
          OFFSET 13.16364 1.694482 -4.693211
          CHANNELS 3 Zrotation Xrotation Yrotation
          JOINT left_humerus
          {
            OFFSET 29.39168 -1.063119 -2.237045
            CHANNELS 3 Zrotation Xrotation Yrotation
            JOINT left_radius
            {
              OFFSET 24.59957 -0.9528479 0.9047498
              CHANNELS 3 Zrotation Xrotation Yrotation
              End Site
              {
                OFFSET 15 -0 -0
              }
            }
          }
        }
      }
    }
  }
}
MOTION
Frames: 17
Frame Time: 0.0416666666667
-524.0014 112.7957 2919.841 -3.001004 -4.88088 -28.18948 5.274374 -19.11419 0.9489137 -0 12.33733 -0 -5.483705 -1.175385 -5.845745 -3.437292 10.64258 -6.67138 -0 44.08504 -0 -5.963097 -11.81095 12.12272 1.049331 -2.923539 3.399516 1.391518 15.2549 -8.448582 1.300568 21.90185 4.088505 1.861626 -21.56565 5.971458 -4.457179 -22.92453 11.80234 98.57826 16.08046 -23.71845 -0 0 9.962111 -17.71728 8.883116 6.283853 5.868935 -28.57123 -8.419718 -87.0941 11.66392 16.93682 0 0 -24.37745 16.88766 15.4886 -7.763639
-527.3385 113.7829 2925.24 -3.329057 -5.42967 -28.70709 5.936217 -13.99504 2.213402 -0 13.72664 -0 -5.50937 -3.220696 -5.80254 -3.035986 6.203264 -6.634764 -0 51.83242 -0 -6.216946 -9.187572 13.13549 1.128242 -2.96471 3.927625 1.156585 15.39424 -8.002305 1.2882 21.85294 3.948859 1.829315 -21.59199 5.820127 -4.531558 -23.85788 11.84925 97.80338 16.09554 -22.24112 -0 0 11.66145 -18.10145 8.824693 6.801961 5.633176 -27.97252 -8.311981 -88.15204 11.58373 19.22778 0 0 -22.33398 16.45701 15.64599 -7.182358
-530.5227 115.0059 2930.353 -3.547084 -5.703986 -29.44066 6.365687 -8.653839 3.18557 -0 13.95078 -0 -5.703108 -5.860942 -5.465112 -2.503674 1.152267 -6.696293 -0 56.3077 -0 -6.112225 -7.015331 14.37701 1.216329 -3.004259 4.553056 0.8751248 15.54275 -7.468399 1.276443 21.7976 3.786449 1.789327 -21.613 5.646702 -4.607126 -24.94501 11.9012 96.87839 16.10536 -20.48005 -0 0 13.67408 -18.56256 8.761002 7.422486 5.351392 -27.24347 -8.172427 -89.42097 11.47125 21.91423 0 0 -19.91541 15.89462 15.81815 -6.428959
-533.5637 116.1642 2935.272 -3.644201 -5.740079 -30.32228 6.455638 -3.597944 3.579959 -0 12.95707 -0 -5.927955 -8.42462 -4.871425 -1.844 -3.964204 -6.574604 -0 56.3189 -0 -5.763361 -5.611732 15.5311 1.306822 -3.039819 5.209675 0.5781422 15.68521 -6.905764 1.266549 21.74074 3.616803 1.743294 -21.63232 5.470131 -4.680534 -26.0765 11.95229 95.91307 16.09344 -18.6284 -0 0 15.78868 -19.0425 8.694303 8.074526 5.051172 -26.46437 -8.016064 -90.77586 11.32786 24.71701 0 0 -17.38693 15.25297 15.98859 -5.571677
-536.4998 116.9946 2940.154 -3.635247 -5.634535 -31.26503 6.223568 1.05251 3.387994 -0 11.20401 -0 -6.063633 -10.51479 -4.08741 -1.060613 -8.879586 -6.147014 -0 52.04578 -0 -5.267056 -4.993814 16.47018 1.38068 -3.054678 5.868678 0.2721292 15.79608 -6.325769 1.261655 21.69051 3.456461 1.701162 -21.61928 5.302038 -4.71875 -27.16513 11.99998 94.90276 16.10016 -16.73014 -0 0 17.90797 -19.55846 8.646657 8.755059 4.7494 -25.63843 -7.835396 -92.14279 11.16409 27.46706 0 0 -14.82742 14.53197 16.1198 -4.621995
-539.3617 117.3236 2945.127 -3.541052 -5.46855 -32.19003 5.756128 5.329186 2.799381 -0 9.309845 -0 -6.06284 -12.07087 -3.1883 -0.1972677 -13.48194 -5.486794 -0 44.56106 -0 -4.669125 -5.004642 17.23268 1.417439 -3.02714 6.527011 -0.05036822 15.8466 -5.713064 1.26733 21.65562 3.316495 1.670465 -21.53106 5.150165 -4.684315 -28.15384 12.04269 93.78762 16.17013 -14.74187 -0 0 20.01708 -20.1612 8.644316 9.496026 4.44949 -24.72381 -7.612153 -93.49309 11.01134 30.09177 0 0 -12.21191 13.67833 16.16805 -3.524062
-542.1611 117.0877 2950.257 -3.388486 -5.299087 -33.03883 5.152531 9.155505 2.068508 -0 7.879118 -0 -5.92709 -13.14636 -2.275033 0.6376397 -17.58238 -4.778446 -0 35.39507 -0 -4.008312 -5.440644 17.89301 1.404234 -2.941855 7.171449 -0.3879331 15.81267 -5.069165 1.290228 21.64318 3.203029 1.649896 -21.33944 5.025647 -4.559479 -28.98773 12.07597 92.55175 16.3133 -12.67107 -0 0 22.07236 -20.87126 8.703657 10.30445 4.152753 -23.70287 -7.33775 -94.78732 10.92874 32.50537 0 0 -9.584035 12.63587 16.09702 -2.210547
-544.9008 116.3484 2955.547 -3.222684 -5.185858 -33.77584 4.494902 12.29509 1.439039 -0 7.511948 -0 -5.667787 -13.72534 -1.488571 1.274085 -20.83507 -4.234701 -0 26.40769 -0 -3.370727 -6.085288 18.4746 1.339315 -2.798803 7.751281 -0.7143464 15.68532 -4.442772 1.333889 21.65713 3.122521 1.633462 -21.04814 4.944429 -4.354788 -29.58906 12.09245 91.28361 16.50784 -10.67354 -0 0 23.91346 -21.64103 8.824935 11.12281 3.874817 -22.63844 -7.029378 -95.92251 10.98445 34.51714 0 0 -7.16375 11.42867 15.89041 -0.7074558
-547.5932 115.2852 2960.968 -3.104641 -5.202581 -34.38183 3.828574 14.51579 1.079327 -0 8.732958 -0 -5.282485 -13.68466 -0.9761211 1.548018 -22.88901 -4.001534 -0 19.36368 -0 -2.893192 -6.734728 18.93396 1.230471 -2.615937 8.1892 -0.9853406 15.48039 -3.917534 1.393607 21.69637 3.085188 1.621864 -20.69284 4.918288 -4.098368 -29.87473 12.08792 90.14469 16.73497 -9.013762 -0 0 25.2942 -22.3718 8.994097 11.84466 3.651279 -21.66917 -6.728771 -96.74274 11.20621 35.86525 0 0 -5.27599 10.21354 15.56701 0.7925892
-550.2692 114.1423 2966.501 -3.081275 -5.409476 -34.84048 3.154498 15.7734 1.031496 -0 11.81384 -0 -4.752631 -12.88801 -0.8215937 1.396108 -23.61018 -4.090875 -0 15.16067 -0 -2.690662 -7.269142 19.20877 1.092009 -2.420535 8.434816 -1.168338 15.23367 -3.556173 1.457833 21.75409 3.097671 1.623529 -20.32267 4.944214 -3.81946 -29.82132 12.06577 89.26104 16.9949 -7.886088 -0 0 26.05283 -22.97654 9.189623 12.38435 3.51515 -20.92201 -6.477227 -97.14227 11.555 36.40335 0 0 -4.124763 9.192582 15.18198 2.036238
-552.966 113.1553 2972.148 -3.154913 -5.811144 -35.12916 2.453323 16.16148 1.233503 -0 16.6553 -0 -4.068714 -11.31614 -1.018495 0.8628958 -23.09232 -4.431084 -0 13.57387 -0 -2.777731 -7.698578 19.27702 0.9441926 -2.238358 8.500601 -1.261447 14.98542 -3.36426 1.515571 21.81932 3.151908 1.641718 -19.98361 5.0054 -3.54734 -29.50461 12.03371 88.66615 17.279 -7.302272 -0 0 26.23109 -23.4162 9.386596 12.72138 3.469327 -20.43863 -6.294035 -97.15235 11.95437 36.23375 0 0 -3.672254 8.472209 14.80389 2.892618
-555.7093 112.5038 2977.913 -3.285072 -6.350492 -35.21995 1.72088 15.71857 1.584914 -0 22.85507 -0 -3.252839 -9.089338 -1.508967 0.02948664 -21.4732 -4.962973 -0 13.77197 -0 -3.07324 -8.129111 19.16091 0.8061133 -2.086378 8.429742 -1.279794 14.76503 -3.315381 1.561008 21.88222 3.231611 1.671732 -19.70661 5.084182 -3.307948 -29.03408 11.99802 88.3423 17.56258 -7.176095 -0 0 25.97151 -23.68626 9.564501 12.87459 3.496033 -20.20018 -6.180643 -96.87621 12.33927 35.56995 0 0 -3.769079 8.055598 14.4831 3.363597
-558.5023 112.2969 2983.781 -3.41042 -6.934209 -35.08547 0.9837241 14.34094 1.990406 -0 29.86489 -0 -2.358235 -6.406065 -2.226812 -1.033904 -18.80524 -5.673948 -0 14.8889 -0 -3.454168 -8.700656 18.89887 0.686953 -1.970734 8.244809 -1.2325 14.58391 -3.394119 1.592912 21.93873 3.327404 1.708829 -19.50323 5.173249 -3.114922 -28.46279 11.96071 88.28181 17.82757 -7.461943 -0 0 25.34944 -23.78768 9.715099 12.85557 3.584169 -20.19078 -6.135766 -96.36953 12.68189 34.51913 0 0 -4.339911 7.922781 14.2402 3.477194
-561.3219 112.567 2989.705 -3.463022 -7.440733 -34.7095 0.3084887 11.84959 2.369064 -0 36.95344 -0 -1.481185 -3.559492 -3.09083 -2.250363 -15.11303 -6.577505 -0 16.20976 -0 -3.779271 -9.538281 18.54176 0.5896052 -1.893751 7.938357 -1.115938 14.44475 -3.608907 1.611219 21.98845 3.438485 1.751063 -19.37873 5.273866 -2.975345 -27.78658 11.92107 88.51281 18.06351 -8.193248 -0 0 24.34266 -23.7068 9.836356 12.65058 3.736614 -20.42561 -6.16418 -95.62092 12.97306 33.05615 0 0 -5.420635 8.080533 14.08207 3.224824
-564.1193 113.2525 2995.592 -3.379566 -7.713479 -34.10595 -0.1892007 8.148978 2.653185 -0 43.00249 -0 -0.7932599 -1.018225 -3.962541 -3.488323 -10.5745 -7.67454 -0 17.15404 -0 -3.890921 -10.70322 18.16793 0.5199086 -1.86177 7.499266 -0.9231693 14.3548 -3.974579 1.614838 22.02975 3.563077 1.795847 -19.34569 5.386757 -2.902573 -27.00467 11.87931 89.08242 18.24602 -9.422115 -0 0 22.91804 -23.41875 9.920454 12.23612 3.957319 -20.9333 -6.2748 -94.61785 13.19064 31.15099 0 0 -7.066695 8.553651 14.01845 2.577347
-566.8352 114.184 3001.317 -3.129181 -7.594235 -33.3376 -0.3706874 3.388597 2.789333 -0 46.55568 -0 -0.526356 0.6425584 -4.642648 -4.549287 -5.640048 -8.905419 -0 17.32289 -0 -3.660388 -12.14523 17.86342 0.4887428 -1.883969 6.941526 -0.6574113 14.3267 -4.486382 1.602853 22.05841 3.69092 1.836366 -19.42027 5.506538 -2.917318 -26.16369 11.83831 90.01039 18.32611 -11.13139 -0 0 21.12454 -22.91264 9.951326 11.61061 4.235605 -21.71514 -6.470652 -93.41138 13.29904 28.88803 0 0 -9.24426 9.338284 14.05794 1.547196
-569.4358 115.112 3006.775 -2.745225 -7.013135 -32.51039 -0.1527858 -2.022676 2.725625 -0 46.3891 -0 -0.8491435 1.0681 -4.970455 -5.23445 -0.8989959 -10.10338 -0 16.60784 -0 -3.088113 -13.71078 17.63988 0.5030178 -1.96269 6.307072 -0.3363126 14.36531 -5.110233 1.576884 22.07101 3.807838 1.864433 -19.60435 5.62467 -3.029978 -25.338 11.80202 91.24824 18.25699 -13.20075 -0 0 19.0996 -22.21552 9.916423 10.81316 4.545372 -22.71976 -6.73942 -92.1101 13.2799 26.45389 0 0 -11.80516 10.37103 14.19119 0.223625
